<svg width="36" height="36" viewBox="0 0 36 36" fill="none" xmlns="http://www.w3.org/2000/svg">
<circle cx="18.002" cy="18.002" r="18.002" fill="#D7162E"/>
<path d="M22.4688 12.3938C22.225 12.2313 21.9 12.2313 21.6562 12.3938L20.0312 13.2063C18.5687 13.9376 16.8625 14.3438 15.1562 14.3438C13.5312 14.3438 12.3125 15.6438 12.3125 17.2688C12.3125 18.1626 12.7187 18.8938 13.2875 19.4626L15.1562 23.2001C15.3187 23.4438 15.5625 23.6876 15.8875 23.6876H17.9187C18.4062 23.6876 18.7312 23.3626 18.7312 22.8751V20.8438C19.1375 21.0063 19.625 21.1688 20.0312 21.4126L21.6562 22.2251C21.7375 22.3063 21.9 22.3063 22.0625 22.3063C22.225 22.3063 22.3875 22.3063 22.4688 22.2251C22.7125 22.0626 22.875 21.8188 22.875 21.4938V13.1251C22.875 12.8813 22.7125 12.5563 22.4688 12.3938ZM21.25 20.1938L20.7625 19.9501C20.1125 19.6251 19.4625 19.3813 18.7312 19.1376V15.4813C19.4625 15.2376 20.1125 14.9938 20.7625 14.6688L21.25 14.4251V20.1938Z" fill="white"/>
<path d="M29.375 18C29.375 15.8062 28.725 13.6937 27.5063 11.825C27.75 11.4187 27.9125 11.0125 27.9125 10.525C27.9125 9.875 27.6687 9.225 27.1812 8.81875C26.3687 8.00625 25.15 7.925 24.175 8.49375C22.3063 7.275 20.1938 6.625 18 6.625C15.8062 6.625 13.6937 7.275 11.825 8.49375C10.85 7.84375 9.63125 8.00625 8.81875 8.81875C8.33125 9.30625 8.0875 9.875 8.0875 10.525C8.0875 11.0125 8.25 11.4187 8.49375 11.825C7.275 13.6937 6.625 15.8062 6.625 18C6.625 20.1938 7.275 22.3063 8.49375 24.175C8.25 24.5813 8.0875 24.9875 8.0875 25.475C8.0875 26.125 8.33125 26.775 8.81875 27.1812C9.30625 27.6687 9.95625 27.9125 10.525 27.9125C10.9313 27.9125 11.4187 27.75 11.825 27.5063C13.6937 28.725 15.8062 29.375 18 29.375C20.1938 29.375 22.3063 28.725 24.175 27.5063C24.5813 27.75 24.9875 27.9125 25.475 27.9125C26.125 27.9125 26.6937 27.6687 27.1812 27.1812C27.6687 26.6937 27.9125 26.125 27.9125 25.475C27.9125 24.9875 27.75 24.5813 27.5063 24.175C28.725 22.3063 29.375 20.1938 29.375 18ZM12.8 26.2875C12.8813 26.0438 12.9625 25.8 12.9625 25.475C12.9625 24.825 12.7187 24.175 12.2312 23.7688C11.5812 23.1187 10.6063 22.875 9.7125 23.2C8.7375 21.6562 8.25 19.8687 8.25 18C8.25 16.1313 8.7375 14.3438 9.7125 12.8C9.95625 12.8813 10.2 12.9625 10.525 12.9625C11.175 12.9625 11.7437 12.7187 12.2312 12.2312C12.7187 11.7437 12.9625 11.175 12.9625 10.525C12.9625 10.2813 12.8813 9.95625 12.8 9.7125C14.3438 8.7375 16.1313 8.25 18 8.25C19.8687 8.25 21.6562 8.7375 23.2 9.7125C23.1187 9.95625 23.0375 10.2 23.0375 10.525C23.0375 11.175 23.2812 11.825 23.7688 12.2312C24.2563 12.7187 24.9062 12.9625 25.475 12.9625C25.7188 12.9625 26.0438 12.8813 26.2875 12.8C27.2625 14.3438 27.75 16.1313 27.75 18C27.75 19.8687 27.2625 21.6562 26.2875 23.2C25.3938 22.875 24.4188 23.1187 23.7688 23.7688C23.2812 24.2563 23.0375 24.825 23.0375 25.475C23.0375 25.7188 23.1187 26.0438 23.2 26.2875C21.6562 27.2625 19.8687 27.75 18 27.75C16.1313 27.75 14.3438 27.2625 12.8 26.2875Z" fill="white"/>
</svg>
