<svg width="36" height="36" viewBox="0 0 36 36" fill="none" xmlns="http://www.w3.org/2000/svg">
<circle cx="18.002" cy="18.002" r="18.002" fill="#D7162E"/>
<path d="M18 7.4375C12.1663 7.4375 7.4375 12.1663 7.4375 18C7.4375 23.8337 12.1663 28.5625 18 28.5625C23.8337 28.5625 28.5625 23.8337 28.5625 18C28.5625 12.1663 23.8337 7.4375 18 7.4375ZM19.6567 21.8862C18.8596 23.083 18.0487 24.0052 16.6846 24.0052C15.7534 23.8533 15.3707 23.1862 15.5723 22.5061L17.3272 16.6935C17.3703 16.5513 17.2988 16.3994 17.1688 16.3531C17.0396 16.3076 16.7861 16.4757 16.5667 16.7163L15.5056 17.9927C15.4772 17.7782 15.5024 17.4239 15.5024 17.2809C16.2994 16.0841 17.6092 15.14 18.4972 15.14C19.3414 15.2261 19.7412 15.9013 19.5941 16.6431L17.8269 22.4842C17.8034 22.6158 17.8733 22.7499 17.9927 22.7921C18.1227 22.8376 18.3957 22.6694 18.6159 22.4289L19.6762 21.1533C19.7046 21.3678 19.6567 21.7432 19.6567 21.8862ZM19.4202 14.2942C18.7491 14.2942 18.2048 13.8051 18.2048 13.0852C18.2048 12.3653 18.7491 11.877 19.4202 11.877C20.0914 11.877 20.6357 12.3661 20.6357 13.0852C20.6357 13.8059 20.0914 14.2942 19.4202 14.2942Z" fill="white"/>
<path d="M30 10.5H28.5V9C28.5 8.17128 27.8283 7.5 27 7.5C26.1717 7.5 25.5 8.17128 25.5 9V10.5H24C23.1717 10.5 22.5 11.1713 22.5 12C22.5 12.8287 23.1717 13.5 24 13.5H25.5V15C25.5 15.8287 26.1717 16.5 27 16.5C27.8283 16.5 28.5 15.8287 28.5 15V13.5H30C30.8283 13.5 31.5 12.8287 31.5 12C31.5 11.1713 30.8283 10.5 30 10.5Z" fill="white" stroke="#D7162E"/>
</svg>
