<svg width="36" height="36" viewBox="0 0 36 36" fill="none" xmlns="http://www.w3.org/2000/svg">
<circle cx="18.002" cy="18.002" r="18.002" fill="#D7162E"/>
<g clip-path="url(#clip0_1390_16)">
<path d="M27.7265 26.4375C27.5072 22.2714 23.7628 20.5479 23.7628 20.5479C22.8682 20.1296 21.2463 19.3108 20.1829 18.7695C21.5453 17.279 21.9477 14.8487 22.0104 14.5029C22.2947 12.9382 22.1516 11.0015 22.1516 11.0015C21.8916 7.2355 18.0893 7.17635 17.6912 7.18031C17.6692 7.18031 17.6549 7.18054 17.6549 7.18054C17.6549 7.18054 17.6427 7.18031 17.6247 7.18054C17.2637 7.17585 13.4196 7.21398 13.1582 11.0015C13.1582 11.0015 13.0151 12.938 13.2994 14.5029C13.3179 14.6037 13.3661 14.8845 13.4575 15.2642C14.1736 16.2044 15.2793 16.6654 16.1868 16.8911C16.3009 16.7802 16.4564 16.7112 16.6287 16.7112H18.2827C18.6327 16.7112 18.9161 16.9949 18.9161 17.3449C18.9161 17.6952 18.6327 17.979 18.2827 17.979H16.6287C16.3675 17.979 16.1443 17.8214 16.0467 17.5967C15.3699 17.4321 14.5866 17.1454 13.8874 16.6523C14.1664 17.3764 14.5639 18.1532 15.1274 18.7698C14.064 19.311 12.4427 20.1296 11.5474 20.5479C11.5474 20.5479 7.80359 22.2714 7.58378 26.4375C7.58378 26.4375 7.51876 27.1303 8.83165 27.3926C8.83165 27.3926 12.8537 28.3106 17.6554 28.3106C22.4574 28.3106 26.4795 27.3926 26.4795 27.3926C27.7922 27.1303 27.7265 26.4375 27.7265 26.4375Z" fill="white"/>
<path d="M11.8712 15.8532H12.2708V11.1598C12.2718 11.1481 12.2745 11.1369 12.2745 11.125V10.4319C12.2745 9.19646 12.6559 8.19502 13.4081 7.45526C14.9639 5.92447 17.6214 5.9453 17.6663 5.95159C17.6979 5.94927 20.3332 5.91137 21.896 7.44098C22.6533 8.18219 23.0375 9.18827 23.0375 10.4319V11.1647C23.0375 11.172 23.0393 11.1785 23.0393 11.1855V15.8532H23.4389C24.4223 15.8532 25.2194 15.0561 25.2194 14.0729V12.3618C25.2194 11.5708 24.7029 10.9012 23.9888 10.6695V10.4321C23.9888 8.92309 23.5084 7.6881 22.5617 6.76124C20.716 4.95484 17.7678 5.00161 17.6647 5.0002C17.5408 4.99902 14.5898 4.9628 12.745 6.77252C11.8016 7.69842 11.3229 8.92968 11.3229 10.4319V10.6683C10.6079 10.9 10.0909 11.5702 10.0909 12.3616V14.0727C10.091 15.0561 10.8883 15.8532 11.8712 15.8532Z" fill="white"/>
</g>
<path d="M20.3448 26.0173H19.0517V24.7242C19.0517 23.9526 18.4264 23.3276 17.6552 23.3276C16.884 23.3276 16.2586 23.9526 16.2586 24.7242V26.0173H14.9655C14.1943 26.0173 13.569 26.6423 13.569 27.4138C13.569 28.1854 14.1943 28.8104 14.9655 28.8104H16.2586V30.1035C16.2586 30.8751 16.884 31.5001 17.6552 31.5001C18.4264 31.5001 19.0517 30.8751 19.0517 30.1035V28.8104H20.3448C21.116 28.8104 21.7414 28.1854 21.7414 27.4138C21.7414 26.6423 21.116 26.0173 20.3448 26.0173Z" fill="white" stroke="#D7162E"/>
<defs>
<clipPath id="clip0_1390_16">
<rect width="23.3103" height="23.3103" fill="white" transform="translate(6 5)"/>
</clipPath>
</defs>
</svg>
