<svg width="36" height="36" viewBox="0 0 36 36" fill="none" xmlns="http://www.w3.org/2000/svg">
<circle cx="18.002" cy="18.002" r="18.002" fill="#D7162E"/>
<path d="M13.9375 29.375H9.0625C7.68125 29.375 6.625 28.3188 6.625 26.9375V22.0625C6.625 20.6812 7.68125 19.625 9.0625 19.625H13.9375C15.3188 19.625 16.375 20.6812 16.375 22.0625V26.9375C16.375 28.3188 15.3188 29.375 13.9375 29.375Z" fill="white"/>
<path d="M28.5625 9.875H18.8125C18.325 9.875 18 9.55 18 9.0625C18 8.575 18.325 8.25 18.8125 8.25H28.5625C29.05 8.25 29.375 8.575 29.375 9.0625C29.375 9.55 29.05 9.875 28.5625 9.875Z" fill="white"/>
<path d="M24.5 13.125H18.8125C18.325 13.125 18 12.8 18 12.3125C18 11.825 18.325 11.5 18.8125 11.5H24.5C24.9875 11.5 25.3125 11.825 25.3125 12.3125C25.3125 12.8 24.9875 13.125 24.5 13.125Z" fill="white"/>
<path d="M28.5625 22.875H18.8125C18.325 22.875 18 22.55 18 22.0625C18 21.575 18.325 21.25 18.8125 21.25H28.5625C29.05 21.25 29.375 21.575 29.375 22.0625C29.375 22.55 29.05 22.875 28.5625 22.875Z" fill="white"/>
<path d="M24.5 26.125H18.8125C18.325 26.125 18 25.8 18 25.3125C18 24.825 18.325 24.5 18.8125 24.5H24.5C24.9875 24.5 25.3125 24.825 25.3125 25.3125C25.3125 25.8 24.9875 26.125 24.5 26.125Z" fill="white"/>
<path d="M13.9375 6.625H9.0625C7.68125 6.625 6.625 7.68125 6.625 9.0625V13.9375C6.625 15.3188 7.68125 16.375 9.0625 16.375H13.9375C15.3188 16.375 16.375 15.3188 16.375 13.9375V9.0625C16.375 7.68125 15.3188 6.625 13.9375 6.625ZM14.5062 10.4437L12.0687 12.8812C11.9062 13.0437 11.7438 13.125 11.5 13.125C11.2562 13.125 11.0938 13.0437 10.9313 12.8812L9.30625 11.2562C8.98125 10.9312 8.98125 10.4438 9.30625 10.1188C9.63125 9.79375 10.1187 9.79375 10.4437 10.1188L11.5 11.175L13.3688 9.30625C13.6938 8.98125 14.1812 8.98125 14.5062 9.30625C14.8313 9.63125 14.8313 10.1187 14.5062 10.4437Z" fill="white"/>
</svg>
