<svg width="36" height="36" viewBox="0 0 36 36" fill="none" xmlns="http://www.w3.org/2000/svg">
<circle cx="18.002" cy="18.002" r="18.002" fill="#D7162E"/>
<g clip-path="url(#clip0_1390_15)">
<path d="M29.2334 28.911C28.9888 24.2641 24.8124 22.3418 24.8124 22.3418C23.8146 21.8753 22.0055 20.962 20.8194 20.3582C22.3391 18.6957 22.7879 15.985 22.8578 15.5993C23.1749 13.8541 23.0153 11.6939 23.0153 11.6939C22.7253 7.49335 18.4843 7.42737 18.0402 7.43179C18.0157 7.43179 17.9997 7.43204 17.9997 7.43204C17.9997 7.43204 17.9862 7.43179 17.9661 7.43204C17.5634 7.42682 13.2757 7.46934 12.9842 11.6939C12.9842 11.6939 12.8245 13.8538 13.1417 15.5993C13.1623 15.7117 13.216 16.0249 13.318 16.4484C14.1168 17.4971 15.3501 18.0113 16.3623 18.263C16.4895 18.1394 16.663 18.0625 16.8551 18.0625H18.7C19.0904 18.0625 19.4065 18.3788 19.4065 18.7692C19.4065 19.1599 19.0904 19.4765 18.7 19.4765H16.8551C16.5638 19.4765 16.3148 19.3007 16.206 19.0501C15.4511 18.8665 14.5774 18.5467 13.7976 17.9967C14.1087 18.8044 14.5521 19.6708 15.1806 20.3585C13.9945 20.9622 12.1861 21.8752 11.1876 22.3418C11.1876 22.3418 7.01175 24.2641 6.76658 28.911C6.76658 28.911 6.69406 29.6837 8.15843 29.9763C8.15843 29.9763 12.6446 31.0001 18.0003 31.0001C23.3564 31.0001 27.8426 29.9763 27.8426 29.9763C29.3067 29.6837 29.2334 28.911 29.2334 28.911Z" fill="white"/>
<path d="M11.5488 17.1055H11.9945V11.8706C11.9956 11.8575 11.9987 11.845 11.9987 11.8317V11.0587C11.9987 9.68066 12.424 8.56368 13.263 7.73856C14.9983 6.03114 17.9625 6.05438 18.0125 6.06139C18.0477 6.0588 20.9872 6.01652 22.7303 7.72263C23.575 8.54936 24.0035 9.67153 24.0035 11.0587V11.8761C24.0035 11.8841 24.0055 11.8914 24.0055 11.8992V17.1055H24.4512C25.5481 17.1055 26.4372 16.2164 26.4372 15.1198V13.2113C26.4372 12.329 25.8611 11.5821 25.0646 11.3236V11.0589C25.0646 9.37576 24.5287 7.99826 23.4728 6.96446C21.4141 4.94963 18.1257 5.0018 18.0107 5.00023C17.8725 4.99891 14.581 4.95851 12.5234 6.97704C11.4711 8.00978 10.9372 9.38311 10.9372 11.0587V11.3224C10.1397 11.5808 9.56311 12.3282 9.56311 13.211V15.1195C9.56315 16.2164 10.4524 17.1055 11.5488 17.1055Z" fill="white"/>
</g>
<defs>
<clipPath id="clip0_1390_15">
<rect width="26" height="26" fill="white" transform="translate(5 5)"/>
</clipPath>
</defs>
</svg>
