<svg width="36" height="36" viewBox="0 0 36 36" fill="none" xmlns="http://www.w3.org/2000/svg">
<circle cx="18.002" cy="18.002" r="18.002" fill="#D7162E"/>
<g clip-path="url(#clip0_1390_17)">
<path d="M12.6493 23.2386C13.1781 22.7098 14.0355 22.7098 14.5643 23.2386C15.0579 23.7322 15.0908 24.5119 14.6631 25.0437L14.5643 25.1537L12.0747 27.6433C11.4798 28.2382 10.5383 28.2754 9.90005 27.7548L9.77663 27.6433L8.43605 26.3027C7.90722 25.7739 7.90722 24.9164 8.43605 24.3877C8.92963 23.894 9.70943 23.8611 10.2412 24.2889L10.3511 24.3877L10.9257 24.9621L12.6493 23.2386ZM26.6668 23.9581C27.5643 23.9581 28.2918 24.6857 28.2918 25.5831C28.2918 26.4806 27.5643 27.2081 26.6668 27.2081H18.0002C17.1027 27.2081 16.3752 26.4806 16.3752 25.5831C16.3752 24.6857 17.1027 23.9581 18.0002 23.9581H26.6668ZM14.5643 15.6552C15.0932 16.1841 15.0932 17.0415 14.5643 17.5703L12.0747 20.06C11.4401 20.6946 10.4112 20.6946 9.77663 20.06L8.43605 18.7193C7.90722 18.1906 7.90722 17.3331 8.43605 16.8043C8.96489 16.2754 9.82229 16.2754 10.3511 16.8043L10.9257 17.3788L12.6493 15.6552C13.1781 15.1264 14.0355 15.1264 14.5643 15.6552ZM26.6668 16.3748C27.5643 16.3748 28.2918 17.1023 28.2918 17.9998C28.2918 18.8445 27.6473 19.5386 26.8233 19.6173L26.6668 19.6248H18.0002C17.1027 19.6248 16.3752 18.8973 16.3752 17.9998C16.3752 17.1551 17.0197 16.461 17.8437 16.3822L18.0002 16.3748H26.6668ZM12.6493 8.07191C13.1781 7.54309 14.0355 7.54309 14.5643 8.07191C15.0579 8.5655 15.0908 9.3453 14.6631 9.87704L14.5643 9.987L12.0747 12.4766C11.4798 13.0715 10.5383 13.1087 9.90005 12.5882L9.77663 12.4766L8.43605 11.136C7.90722 10.6072 7.90722 9.74977 8.43605 9.22094C8.92963 8.72736 9.70943 8.69445 10.2412 9.12222L10.3511 9.22094L10.9257 9.79549L12.6493 8.07191ZM26.6668 8.7915C27.5643 8.7915 28.2918 9.51903 28.2918 10.4165C28.2918 11.2612 27.6473 11.9553 26.8233 12.0341L26.6668 12.0415H18.0002C17.1027 12.0415 16.3752 11.314 16.3752 10.4165C16.3752 9.57182 17.0197 8.87768 17.8437 8.79894L18.0002 8.7915H26.6668Z" fill="white"/>
</g>
<defs>
<clipPath id="clip0_1390_17">
<rect width="26" height="26" fill="white" transform="translate(5 5)"/>
</clipPath>
</defs>
</svg>
