<svg width="37" height="37" viewBox="0 0 37 37" fill="none" xmlns="http://www.w3.org/2000/svg">
<circle cx="18.7266" cy="18.7266" r="18.002" fill="#D7162E"/>
<path d="M26.032 11.9315C24.9098 10.8085 23.5363 9.96878 22.0252 9.48188C20.5141 8.99499 18.9088 8.87488 17.342 9.1315C15.8198 9.38743 14.3774 9.99228 13.128 10.8987C11.8785 11.8051 10.8559 12.9885 10.1401 14.3561C9.42431 15.7237 9.03486 17.2385 9.00223 18.7817C8.96961 20.325 9.29469 21.8548 9.95202 23.2515L9.32202 26.3115C9.25547 26.6367 9.2709 26.9733 9.36692 27.291C9.46293 27.6088 9.63652 27.8976 9.87202 28.1315C10.1069 28.3652 10.3962 28.5369 10.7139 28.6312C11.0315 28.7255 11.3677 28.7393 11.692 28.6715L14.752 28.0515C16.0664 28.6694 17.4996 28.9936 18.952 29.0015C19.5694 29.004 20.1856 28.9471 20.792 28.8315C22.5821 28.4978 24.247 27.6816 25.6073 26.4711C26.9675 25.2606 27.9714 23.7016 28.5107 21.9624C29.0499 20.2232 29.1041 18.3697 28.6673 16.602C28.2305 14.8343 27.3193 13.2194 26.032 11.9315Z" fill="white"/>
<path d="M19 24C18.7348 24 18.4804 23.8946 18.2929 23.7071C18.1054 23.5196 18 23.2652 18 23V19C18 18.7348 18.1054 18.4804 18.2929 18.2929C18.4804 18.1054 18.7348 18 19 18C19.2652 18 19.5196 18.1054 19.7071 18.2929C19.8946 18.4804 20 18.7348 20 19V23C20 23.2652 19.8946 23.5196 19.7071 23.7071C19.5196 23.8946 19.2652 24 19 24ZM19 13.5C18.7033 13.5 18.4133 13.588 18.1666 13.7528C17.92 13.9176 17.7277 14.1519 17.6142 14.426C17.5006 14.7001 17.4709 15.0017 17.5288 15.2926C17.5867 15.5836 17.7296 15.8509 17.9393 16.0607C18.1491 16.2704 18.4164 16.4133 18.7074 16.4712C18.9983 16.5291 19.2999 16.4994 19.574 16.3858C19.8481 16.2723 20.0824 16.08 20.2472 15.8334C20.412 15.5867 20.5 15.2967 20.5 15C20.5 14.6022 20.342 14.2206 20.0607 13.9393C19.7794 13.658 19.3978 13.5 19 13.5Z" fill="#D7162E"/>
</svg>
