<svg width="36" height="36" viewBox="0 0 36 36" fill="none" xmlns="http://www.w3.org/2000/svg">
<circle cx="18.002" cy="18.002" r="18.002" fill="#D7162E"/>
<g clip-path="url(#clip0_1390_13)">
<path d="M23.6875 10.6875H12.3125C10.9312 10.6875 9.875 11.7438 9.875 13.125V21.8188L17.5938 17.35C17.8375 17.1875 18.2438 17.1875 18.4875 17.4313L21.3313 19.5438L26.125 16.6188V13.125C26.125 11.7438 25.0688 10.6875 23.6875 10.6875ZM14.75 16.375C13.8563 16.375 13.125 15.6438 13.125 14.75C13.125 13.8563 13.8563 13.125 14.75 13.125C15.6438 13.125 16.375 13.8563 16.375 14.75C16.375 15.6438 15.6438 16.375 14.75 16.375Z" fill="white"/>
<path d="M20.7625 21.0873L17.9188 18.9748L9.9563 23.6061C10.2813 24.5811 11.2563 25.3123 12.3125 25.3123H23.6875C25.0688 25.3123 26.125 24.2561 26.125 22.8748V18.4873L21.6563 21.1686C21.4125 21.3311 21.0063 21.2498 20.7625 21.0873Z" fill="white"/>
<path d="M16.1312 9.63125L18 7.7625L19.8687 9.63125C20.0312 9.79375 20.1937 9.875 20.4375 9.875C20.6813 9.875 20.8438 9.79375 21.0063 9.63125C21.3313 9.30625 21.3313 8.81875 21.0063 8.49375L18.5688 6.05625C18.2438 5.73125 17.7562 5.73125 17.4312 6.05625L14.9938 8.49375C14.6688 8.81875 14.6688 9.30625 14.9938 9.63125C15.3188 9.95625 15.8062 9.95625 16.1312 9.63125Z" fill="white"/>
<path d="M19.8687 26.3688L18 28.2375L16.1312 26.3688C15.8062 26.0437 15.3188 26.0437 14.9938 26.3688C14.6688 26.6938 14.6688 27.1813 14.9938 27.5063L17.4312 29.9438C17.5938 30.1063 17.8375 30.1875 18 30.1875C18.1625 30.1875 18.4063 30.1063 18.5688 29.9438L21.0063 27.5063C21.3313 27.1813 21.3313 26.6938 21.0063 26.3688C20.6813 26.0437 20.1937 26.0437 19.8687 26.3688Z" fill="white"/>
<path d="M8.81875 14.9938C8.49375 14.6688 8.00625 14.6688 7.68125 14.9938L5.24375 17.4312C4.91875 17.7562 4.91875 18.2438 5.24375 18.5688L7.68125 21.0063C7.84375 21.1688 8.00625 21.25 8.25 21.25C8.49375 21.25 8.65625 21.1688 8.81875 21.0063C9.14375 20.6813 9.14375 20.1937 8.81875 19.8687L6.95 18L8.81875 16.1312C9.14375 15.8062 9.14375 15.3188 8.81875 14.9938Z" fill="white"/>
<path d="M30.7563 17.4312L28.3188 14.9938C27.9938 14.6688 27.5063 14.6688 27.1813 14.9938C26.8562 15.3188 26.8562 15.8062 27.1813 16.1312L29.05 18L27.1813 19.8687C26.8562 20.1937 26.8562 20.6813 27.1813 21.0063C27.3438 21.1688 27.5875 21.25 27.75 21.25C27.9125 21.25 28.1563 21.1688 28.3188 21.0063L30.7563 18.5688C31.0813 18.2438 31.0813 17.7562 30.7563 17.4312Z" fill="white"/>
</g>
<defs>
<clipPath id="clip0_1390_13">
<rect width="26" height="26" fill="white" transform="translate(5 5)"/>
</clipPath>
</defs>
</svg>
