<svg width="36" height="36" viewBox="0 0 36 36" fill="none" xmlns="http://www.w3.org/2000/svg">
<circle cx="18.002" cy="18.002" r="18.002" fill="#D7162E"/>
<g clip-path="url(#clip0_1390_9)">
<path d="M20.71 18.9954L19.2732 18.8235C19.1256 18.2749 18.9101 17.7574 18.6333 17.2768L19.5249 16.1411C19.6624 15.9658 19.6465 15.6957 19.4888 15.5389L18.0075 14.0568C17.8507 13.9 17.5806 13.884 17.4062 14.0199L16.2688 14.9149C15.7899 14.6381 15.2723 14.4225 14.7246 14.2766L14.5535 12.8381C14.5275 12.6183 14.3245 12.438 14.1031 12.438H12.007C11.7856 12.438 11.5826 12.6183 11.5566 12.8381L11.3838 14.2757C10.8361 14.4217 10.3178 14.6381 9.83883 14.9149L8.70063 14.0216C8.527 13.8849 8.25608 13.9 8.10007 14.0568L6.61798 15.5406C6.46113 15.6974 6.44519 15.9675 6.58191 16.142L7.47519 17.2777C7.19756 17.7574 6.98368 18.2758 6.83689 18.8243L5.40009 18.9963C5.18033 19.0223 5 19.2244 5 19.4475V21.5428C5 21.765 5.18033 21.9672 5.40009 21.9923L6.83773 22.166C6.98452 22.712 7.19924 23.2304 7.47603 23.7101L6.58359 24.8458C6.44687 25.022 6.4628 25.292 6.61965 25.4489L8.10007 26.931C8.25608 27.0887 8.527 27.1046 8.70063 26.9687L9.83883 26.0729C10.3178 26.3497 10.8361 26.5661 11.3838 26.7121L11.5566 28.1497C11.5826 28.3695 11.7856 28.5498 12.007 28.5498H14.1031C14.3245 28.5498 14.5275 28.3695 14.5535 28.1497L14.7263 26.7112C15.274 26.5653 15.7924 26.3489 16.2721 26.0721L17.4095 26.9645C17.584 27.1004 17.8541 27.0862 18.0101 26.9301L19.4922 25.4455C19.649 25.2878 19.6658 25.0178 19.5282 24.8441L18.6349 23.7085C18.9126 23.2287 19.1265 22.7103 19.2732 22.1618L20.7117 21.9898C20.9323 21.9638 21.1118 21.7625 21.1118 21.5394V19.4442C21.1118 19.2227 20.9315 19.0223 20.71 18.9954ZM13.0563 24.5187C10.8328 24.5187 9.02942 22.717 9.02942 20.4918C9.02942 18.2674 10.8328 16.4641 13.0563 16.4641C15.2807 16.4641 17.0832 18.2666 17.0832 20.4918C17.0841 22.717 15.2807 24.5187 13.0563 24.5187Z" fill="white"/>
<path d="M30.7006 12.3843L29.6177 12.256C29.507 11.8433 29.346 11.4516 29.1363 11.0901L29.8098 10.2345C29.913 10.1045 29.8996 9.89987 29.7821 9.78161L28.6666 8.66689C28.5492 8.54779 28.3453 8.53604 28.2137 8.63921L27.3573 9.31274C26.9966 9.10389 26.6057 8.94284 26.1956 8.83381L26.0647 7.7518C26.0463 7.58572 25.8928 7.45068 25.7276 7.45068H24.149C23.9821 7.45068 23.8294 7.58572 23.8101 7.7518L23.681 8.83381C23.2683 8.94284 22.8783 9.10473 22.5168 9.31358L21.6604 8.64089C21.5296 8.53856 21.3257 8.55114 21.2083 8.66689L20.0919 9.78412C19.9728 9.90239 19.9619 10.1054 20.0651 10.2362L20.7386 11.0926C20.5289 11.4533 20.3687 11.8441 20.2571 12.2568L19.1751 12.386C19.0091 12.4053 18.874 12.5588 18.874 12.7257V14.3034C18.874 14.4686 19.0099 14.623 19.1751 14.6406L20.2563 14.7723C20.3679 15.1832 20.5297 15.5733 20.7378 15.9348L20.0642 16.7903C19.9619 16.9212 19.9745 17.1258 20.0919 17.2433L21.2058 18.358C21.3241 18.4779 21.527 18.4888 21.6579 18.3856L22.5143 17.7113C22.8749 17.9201 23.2658 18.082 23.6776 18.1911L23.8076 19.2747C23.8261 19.4383 23.9804 19.5733 24.1465 19.5733H25.7242C25.8903 19.5733 26.0429 19.4383 26.0622 19.2747L26.1914 18.1911C26.6041 18.082 26.9941 17.9201 27.3548 17.7113L28.2111 18.384C28.3428 18.4871 28.5458 18.4754 28.6641 18.358L29.7796 17.2407C29.8979 17.1241 29.9096 16.9203 29.8065 16.7895L29.1338 15.9331C29.3435 15.5733 29.5028 15.1824 29.6136 14.7706L30.6964 14.6414C30.8625 14.6204 30.9975 14.4695 30.9975 14.3017V12.7248C31.0009 12.5562 30.865 12.4053 30.7006 12.3843ZM24.9383 16.5446C23.2624 16.5446 21.9062 15.1874 21.9062 13.5133C21.9062 11.8383 23.2641 10.482 24.9383 10.482C26.6108 10.482 27.9687 11.8383 27.9687 13.5133C27.9687 15.1866 26.6116 16.5446 24.9383 16.5446Z" fill="white"/>
</g>
<defs>
<clipPath id="clip0_1390_9">
<rect width="26" height="26" fill="white" transform="translate(5 5)"/>
</clipPath>
</defs>
</svg>
