<svg width="36" height="36" viewBox="0 0 36 36" fill="none" xmlns="http://www.w3.org/2000/svg">
<circle cx="18.002" cy="18.002" r="18.002" fill="#D7162E"/>
<path d="M28.8333 28.021C28.8333 28.4652 28.465 28.8335 28.0208 28.8335H7.97913C7.53496 28.8335 7.16663 28.4652 7.16663 28.021C7.16663 27.5768 7.53496 27.2085 7.97913 27.2085H28.0208C28.465 27.2085 28.8333 27.5768 28.8333 28.021Z" fill="white"/>
<path d="M21.674 9.89837L10.039 21.5333C9.59482 21.9775 8.87982 21.9775 8.44648 21.5333H8.43565C6.92982 20.0167 6.92982 17.5683 8.43565 16.0625L16.1815 8.3167C17.6981 6.80003 20.1465 6.80003 21.6631 8.3167C22.1073 8.7392 22.1073 9.46503 21.674 9.89837Z" fill="white"/>
<path d="M27.5566 14.1978L24.2524 10.8937C23.8082 10.4495 23.0932 10.4495 22.6599 10.8937L11.0249 22.5287C10.5807 22.962 10.5807 23.677 11.0249 24.1212L14.3291 27.4362C15.8457 28.942 18.2941 28.942 19.8107 27.4362L27.5457 19.6903C29.0841 18.1737 29.0841 15.7145 27.5566 14.1978ZM18.8249 23.9803L17.5141 25.302C17.2432 25.5728 16.7991 25.5728 16.5174 25.302C16.2466 25.0312 16.2466 24.587 16.5174 24.3053L17.8391 22.9837C18.0991 22.7237 18.5541 22.7237 18.8249 22.9837C19.0957 23.2545 19.0957 23.7203 18.8249 23.9803ZM23.1257 19.6795L20.4824 22.3337C20.2116 22.5937 19.7674 22.5937 19.4857 22.3337C19.2149 22.0628 19.2149 21.6187 19.4857 21.337L22.1399 18.6828C22.3999 18.4228 22.8549 18.4228 23.1257 18.6828C23.3966 18.9645 23.3966 19.4087 23.1257 19.6795Z" fill="white"/>
</svg>
