<svg width="36" height="36" viewBox="0 0 36 36" fill="none" xmlns="http://www.w3.org/2000/svg">
<circle cx="18.002" cy="18.002" r="18.002" fill="#D7162E"/>
<path d="M29.05 15.3187C28.9688 14.9124 28.5625 14.6687 28.1562 14.6687C27.1812 14.8312 26.2062 14.3437 25.7188 13.4499C25.2313 12.6374 25.3125 11.4999 25.8813 10.7687C26.125 10.4437 26.125 9.95617 25.8 9.71242C24.5 8.49367 22.9562 7.59992 21.25 7.11242C20.8438 7.03117 20.4375 7.19367 20.275 7.59992C19.8687 8.49367 18.975 9.06242 18 9.06242C17.025 9.06242 16.1312 8.49367 15.725 7.59992C15.5625 7.19367 15.1562 6.94992 14.75 7.11242C13.0438 7.59992 11.5 8.49367 10.2 9.79367C9.875 10.0374 9.875 10.5249 10.1188 10.8499C10.6875 11.6624 10.7688 12.7187 10.2812 13.5312C9.79375 14.3437 8.81875 14.8312 7.84375 14.7499C7.4375 14.6687 7.03125 14.9937 6.95 15.3999C6.70625 16.2124 6.625 17.1062 6.625 17.9999C6.625 18.8937 6.70625 19.7874 6.95 20.6812C7.03125 21.0874 7.4375 21.3312 7.84375 21.2499C8.81875 21.0874 9.79375 21.5749 10.2812 22.4687C10.7688 23.2812 10.6875 24.4187 10.1188 25.1499C9.875 25.4749 9.875 25.9624 10.2 26.2062C11.5 27.4249 13.125 28.3999 14.8313 28.8874C15.2375 28.9687 15.6438 28.8062 15.8063 28.3999C16.2125 27.5062 17.1062 26.9374 18.0813 26.9374C19.0563 26.9374 19.95 27.5062 20.3562 28.3999C20.5187 28.7249 20.7625 28.8874 21.0875 28.8874C21.1687 28.8874 21.25 28.8874 21.3313 28.8874C23.0375 28.3999 24.6625 27.4249 25.9625 26.2062C26.2875 25.8812 26.2875 25.4749 26.0437 25.1499C25.475 24.3374 25.3938 23.2812 25.8813 22.4687C26.3688 21.6562 27.3438 21.1687 28.3188 21.2499C28.725 21.3312 29.1312 21.0062 29.2125 20.5999C29.4562 19.7062 29.5375 18.8124 29.5375 17.9187C29.5375 17.0249 29.2938 16.2124 29.05 15.3187ZM14.5062 19.8687C14.8313 20.1937 14.8313 20.6812 14.5062 21.0062C14.3438 21.1687 14.1813 21.2499 13.9375 21.2499C13.6937 21.2499 13.5312 21.1687 13.3688 21.0062L10.9313 18.5687C10.6063 18.2437 10.6063 17.7562 10.9313 17.4312L13.3688 14.9937C13.6938 14.6687 14.1812 14.6687 14.5062 14.9937C14.8313 15.3187 14.8313 15.8062 14.5062 16.1312L12.6375 17.9999L14.5062 19.8687ZM20.3562 15.0749L17.1062 21.5749C16.9437 21.8999 16.7 22.0624 16.375 22.0624C16.2125 22.0624 16.1313 22.0624 16.05 21.9812C15.6438 21.8187 15.4812 21.3312 15.725 20.9249L18.975 14.4249C19.1375 14.0187 19.625 13.8562 20.0312 14.0999C20.3562 14.2624 20.5187 14.7499 20.3562 15.0749ZM25.0688 18.5687L22.6313 21.0062C22.4688 21.1687 22.3062 21.2499 22.0625 21.2499C21.8188 21.2499 21.6562 21.1687 21.4937 21.0062C21.1687 20.6812 21.1687 20.1937 21.4937 19.8687L23.3625 17.9999L21.4937 16.1312C21.1687 15.8062 21.1687 15.3187 21.4937 14.9937C21.8187 14.6687 22.3063 14.6687 22.6313 14.9937L25.0688 17.4312C25.3938 17.7562 25.3938 18.2437 25.0688 18.5687Z" fill="white"/>
</svg>
